<svg xmlns:xlink="http://www.w3.org/1999/xlink" xmlns="http://www.w3.org/2000/svg" viewBox="0 0 210 144.33333587646484" preserveAspectRatio="xMidYMid meet" class="css-f87xc7" id="agfebbge" width="300"  height="150" ><defs id="SvgjsDefs1001"><linearGradient id="SvgjsLinearGradient1015"><stop id="SvgjsStop1016" stop-color="#7f00ff" offset="0"></stop><stop id="SvgjsStop1017" stop-color="#e100ff" offset="1"></stop></linearGradient><linearGradient id="SvgjsLinearGradient1018"><stop id="SvgjsStop1019" stop-color="#7f00ff" offset="0"></stop><stop id="SvgjsStop1020" stop-color="#e100ff" offset="1"></stop></linearGradient></defs><g id="SvgjsG1007" featurekey="LwVBM5-0" transform="matrix(1.075164649762277,0,0,1.075164649762277,51.12940736339149,-28.084248983891804)" fill="#111111"><g xmlns="http://www.w3.org/2000/svg" fill="#111111"><path d="M52.9,44.71c-0.59-2.76,1.08-3.6,2.08-4.1l14.609-7.4" fill="#111111"></path><path d="M54.37,44.4c0.17,0.81-0.351,1.6-1.149,1.78c-0.811,0.17-1.601-0.35-1.781-1.15c-0.83-3.87,1.471-5.04,2.86-5.74   l0.011-0.01l1.369-0.69c-0.22-2.34,0-4.52,0.7-6.4c0.8-2.14,2.22-3.85,4.341-4.92c1.879-0.95,5.539-1.23,9.289-1.13   c4.711,0.13,9.721,0.87,11.36,1.64c0.75,0.35,1.069,1.24,0.71,1.99c-0.08,0.18-0.2,0.33-0.33,0.46c-0.04,0.04-0.09,0.08-0.13,0.11   l-0.05,0.04l-0.021,0.01c-0.05,0.04-0.11,0.07-0.17,0.1h-0.01c-0.04,0.02-0.07,0.03-0.11,0.05c-1.609,0.6-4.72,4.84-7.39,8.47   c-0.3,0.41-0.591,0.8-1.11,1.5c-0.49,0.66-0.99,1.24-1.5,1.75c-1.88,1.87-3.93,2.8-6.109,2.83c-2.121,0.03-4.291-0.79-6.471-2.41   c-0.56-0.42-1.119-0.89-1.689-1.41l-1.32,0.67l0,0l-0.01,0.01c-0.61,0.31-1.62,0.82-1.28,2.45H54.37z M82.439,44.32   c-0.83,0-1.5-0.67-1.5-1.5c0-0.83,0.67-1.5,1.5-1.5h4.021c2.79,0,5.33,1.14,7.17,2.98c1.841,1.84,2.979,4.38,2.979,7.171l0,0   c0,2.789-1.139,5.329-2.979,7.17c-1.84,1.84-4.38,2.979-7.17,2.979H41.22c-0.83,0-1.5-0.67-1.5-1.5s0.67-1.5,1.5-1.5h45.24   c1.96,0,3.75-0.81,5.05-2.101c1.301-1.299,2.1-3.08,2.1-5.049l0,0c0-1.961-0.799-3.75-2.1-5.051c-1.3-1.3-3.08-2.1-5.05-2.1H82.439   z M73.93,80.07c-0.83,0-1.5-0.67-1.5-1.5s0.67-1.5,1.5-1.5h3.051c1.39,0,2.66-0.57,3.58-1.49S82.05,73.4,82.05,72l0,0   c0-1.391-0.569-2.66-1.489-3.58c-0.021-0.02-0.041-0.05-0.07-0.07c-0.91-0.879-2.15-1.42-3.51-1.42H41.13c-0.83,0-1.5-0.67-1.5-1.5   s0.67-1.5,1.5-1.5H76.98c2.17,0,4.149,0.87,5.609,2.291c0.03,0.029,0.061,0.049,0.09,0.079c1.461,1.46,2.37,3.479,2.37,5.7l0,0   c0,2.21-0.909,4.23-2.37,5.689L82.67,77.7c-1.46,1.46-3.48,2.37-5.689,2.37H73.93z M23.24,61.67c-0.83,0-1.5-0.67-1.5-1.5   s0.67-1.5,1.5-1.5h11.42c0.83,0,1.5,0.67,1.5,1.5s-0.67,1.5-1.5,1.5H23.24z M5.1,54.9c-0.83,0-1.5-0.67-1.5-1.5s0.67-1.5,1.5-1.5   h44.3c0.83,0,1.5,0.67,1.5,1.5s-0.67,1.5-1.5,1.5H5.1z M58.59,37.1l10.33-5.23c0.74-0.37,1.641-0.08,2.01,0.66   c0.37,0.74,0.08,1.64-0.66,2.01l-10.41,5.27c0.201,0.16,0.391,0.32,0.591,0.46c1.649,1.22,3.2,1.85,4.64,1.82   c1.381-0.02,2.74-0.66,4.04-1.96c0.41-0.41,0.81-0.88,1.21-1.41c0.189-0.25,0.641-0.87,1.1-1.49c1.92-2.61,4.041-5.5,5.971-7.43   c-2.02-0.34-4.77-0.61-7.471-0.68c-3.319-0.09-6.469,0.11-7.869,0.82s-2.34,1.86-2.891,3.3c-0.42,1.13-0.609,2.44-0.59,3.87V37.1z" fill="#111111"></path></g></g><g id="SvgjsG1008" featurekey="textGroupContainer" transform="matrix(1,0,0,1,0,78)" fill="#111111"><rect xmlns="http://www.w3.org/2000/svg" y="0" x="0" height="1" width="1" opacity="0" fill="#111111"></rect><rect xmlns="http://www.w3.org/2000/svg" y="64.33333333333333" x="0" width="16" height="2" fill="#111111"></rect><rect xmlns="http://www.w3.org/2000/svg" y="64.33333333333333" x="194" width="16" height="2" fill="#111111"></rect></g><g id="SvgjsG1009" featurekey="YhTCwJ-0" transform="matrix(2.993115847252716,0,0,2.993115847252716,4.161925507559689,65.39359432287182)" fill="#111111"><path d="M2 10.64 l2.14 7.2 l0.04 0 l2.42 -7.2 l1.64 0 l2.46 7.2 l0.04 0 l2.12 -7.2 l1.68 0 l-3.02 9.36 l-1.54 0 l-2.66 -7.2 l-0.04 0 l-2.36 7.2 l-1.6 0 l-3.04 -9.36 l1.72 0 z M19.9 10.4 q2.04 0 2.97 0.96 t0.95 2.9 l0 4.2 q0 0.6 0.14 1.54 l-1.5 0 q-0.1 -0.18 -0.1 -1.4 l-0.04 0 q-1.06 1.6 -3.08 1.64 q-1.54 0 -2.51 -0.77 t-0.97 -2.01 q0 -1.7 1.4 -2.49 t4.38 -0.79 l0.72 0 l0 -0.26 q0 -2.04 -2.32 -2.08 q-1.68 0 -2.78 1.02 l-0.98 -1.02 q1.44 -1.4 3.72 -1.44 z M17.44 17.3 q0 1.58 2.06 1.62 q1.22 0 1.99 -0.78 t0.77 -2.28 l0 -0.36 l-1.72 0 q-1.38 0 -2.23 0.44 t-0.87 1.36 z M31.28 10.4 q0.36 0 0.64 0.1 l-0.1 1.58 q-0.44 -0.12 -0.84 -0.12 q-1.36 0 -2.05 0.89 t-0.69 2.51 l0 4.64 l-1.56 0 l0 -7.28 q0 -0.28 -0.08 -2.08 l1.48 0 q0.04 1.4 0.04 1.54 l0.04 0 q0.38 -0.8 1.23 -1.29 t1.89 -0.49 z M35.2 4.880000000000001 l0 7.12 l0.04 0 q1.36 -1.58 3.36 -1.6 q2.22 0 3.56 1.39 t1.36 3.53 q0 2.08 -1.34 3.48 t-3.34 1.44 q-1.2 0 -2.17 -0.52 t-1.43 -1.38 l-0.04 0 l0 1.66 l-1.56 0 l0 -15.12 l1.56 0 z M35.2 15.32 q0 1.54 0.95 2.51 t2.37 0.97 q1.46 0 2.38 -0.97 t0.94 -2.51 q0 -1.52 -0.93 -2.5 t-2.41 -0.98 q-1.44 0 -2.36 0.97 t-0.94 2.51 z M47.64 4.880000000000001 l0 15.12 l-1.56 0 l0 -15.12 l1.56 0 z M55 10.4 q2.08 0 3.25 1.31 t1.19 3.71 l0 0.38 l-7.56 0 q0.12 1.3 0.98 2.14 t2.1 0.86 q1.9 0 2.96 -1.42 l1.18 0.92 q-0.74 0.96 -1.74 1.45 t-2.4 0.49 q-2.14 0 -3.44 -1.39 t-1.32 -3.53 q0 -2.12 1.33 -3.5 t3.47 -1.42 z M57.76 14.48 q-0.06 -1.22 -0.79 -1.93 t-2.05 -0.71 q-1.2 0 -2.02 0.68 t-1.02 1.96 l5.88 0 z M66.46 10.4 q0.36 0 0.64 0.1 l-0.1 1.58 q-0.44 -0.12 -0.84 -0.12 q-1.36 0 -2.05 0.89 t-0.69 2.51 l0 4.64 l-1.56 0 l0 -7.28 q0 -0.28 -0.08 -2.08 l1.48 0 q0.04 1.4 0.04 1.54 l0.04 0 q0.38 -0.8 1.23 -1.29 t1.89 -0.49 z" fill="#111111"></path></g><g id="SvgjsG1010" featurekey="duLK5n-0" transform="matrix(0.39111606988393105,0,0,0.39111606988393105,20.734041326117126,133.91926356007002)" fill="#111111"><path d="M8.14 18.46 c1.78 0 3.44 -0.82 4.54 -2.26 l1.4 1.04 c-1.42 1.9 -3.6 2.98 -5.94 2.98 c-4.12 0 -7.46 -3.34 -7.46 -7.46 c0 -4.1 3.34 -7.44 7.46 -7.44 c2.36 0 4.54 1.1 5.96 3 l-1.42 1.04 c-1.08 -1.46 -2.74 -2.28 -4.54 -2.28 c-3.16 0 -5.7 2.54 -5.7 5.68 c0 3.16 2.54 5.7 5.7 5.7 z M35.1 12.42 l5.5 7.58 l-2.06 0 l-5.44 -7.48 l-2.04 0 l0 7.48 l-1.72 0 l0 -14.24 l4.94 0 c0.9 0 1.74 0.36 2.38 1 s1 1.48 1 2.38 c0 1.58 -1.1 2.9 -2.56 3.28 z M31.06 7.48 l0 3.32 l3.22 0 c0.92 0 1.66 -0.74 1.66 -1.66 s-0.74 -1.66 -1.66 -1.66 l-3.22 0 z M54.559999999999995 20 l0 -14.24 l9 0 l0 1.72 l-7.2 0 l0 3.34 l6.28 0 l0 1.78 l-6.28 0 l0 5.64 l7.02 0 l0 1.76 l-8.82 0 z M88.46 20 l-1.58 -4.14 l-5.82 0 l-1.58 4.14 l-1.92 0 l5.48 -14.24 l1.86 0 l5.5 14.24 l-1.94 0 z M86.17999999999999 14.1 l-2.2 -5.76 l-2.22 5.76 l4.42 0 z M108.05999999999999 20 l0 -12.48 l-3.76 0 l0 -1.76 l9.32 0 l0 1.76 l-3.76 0 l0 12.48 l-1.8 0 z M129.72 20 l0 -14.24 l1.8 0 l0 14.24 l-1.8 0 z M147.07999999999998 5.76 l1.94 0 l4.48 11.66 l4.5 -11.66 l1.92 0 l-5.48 14.24 l-1.86 0 z M174.51999999999998 20 l0 -14.24 l9 0 l0 1.72 l-7.2 0 l0 3.34 l6.28 0 l0 1.78 l-6.28 0 l0 5.64 l7.02 0 l0 1.76 l-8.82 0 z M215.98 20 l0 -14.24 l4.6 0 c4.04 0 7.32 3.2 7.32 7.12 s-3.28 7.12 -7.32 7.12 l-4.6 0 z M220.57999999999998 18.26 c3.06 0 5.54 -2.44 5.54 -5.38 s-2.48 -5.38 -5.54 -5.38 l-2.82 0 l0 10.76 l2.82 0 z M242.97999999999996 20 l0 -14.24 l9 0 l0 1.72 l-7.2 0 l0 3.34 l6.28 0 l0 1.78 l-6.28 0 l0 5.64 l7.02 0 l0 1.76 l-8.82 0 z M266.3999999999999 5.76 l1.94 0 l4.48 11.66 l4.5 -11.66 l1.92 0 l-5.48 14.24 l-1.86 0 z M293.84 20 l0 -14.24 l9 0 l0 1.72 l-7.2 0 l0 3.34 l6.28 0 l0 1.78 l-6.28 0 l0 5.64 l7.02 0 l0 1.76 l-8.82 0 z M318.0799999999999 20 l0 -14.24 l1.8 0 l0 12.5 l7.8 0 l0 1.74 l-9.6 0 z M348.2399999999999 5.32 c4.1 0 7.46 3.34 7.46 7.46 c0 4.1 -3.36 7.42 -7.46 7.42 s-7.44 -3.32 -7.44 -7.42 c0 -4.12 3.34 -7.46 7.44 -7.46 z M348.2399999999999 18.44 c3.12 0 5.64 -2.56 5.64 -5.66 c0 -3.12 -2.52 -5.7 -5.64 -5.7 s-5.64 2.58 -5.64 5.7 c0 3.1 2.52 5.66 5.64 5.66 z M370.8399999999999 20 l0 -14.24 l4.96 0 c0.9 0 1.76 0.36 2.4 1 s1 1.5 1 2.4 c0 1.88 -1.54 3.38 -3.4 3.38 l-3.18 0 l0 7.46 l-1.78 0 z M375.7999999999999 10.8 c0.88 0 1.6 -0.74 1.6 -1.64 s-0.72 -1.66 -1.6 -1.66 l-3.18 0 l0 3.3 l3.18 0 z M394.63999999999993 20 l0 -14.24 l9 0 l0 1.72 l-7.2 0 l0 3.34 l6.28 0 l0 1.78 l-6.28 0 l0 5.64 l7.02 0 l0 1.76 l-8.82 0 z M424.7199999999999 12.42 l5.5 7.58 l-2.06 0 l-5.44 -7.48 l-2.04 0 l0 7.48 l-1.72 0 l0 -14.24 l4.94 0 c0.9 0 1.74 0.36 2.38 1 s1 1.48 1 2.38 c0 1.58 -1.1 2.9 -2.56 3.28 z M420.6799999999999 7.48 l0 3.32 l3.22 0 c0.92 0 1.66 -0.74 1.66 -1.66 s-0.74 -1.66 -1.66 -1.66 l-3.22 0 z" fill="#111111"></path></g></svg>