<svg xmlns:xlink="http://www.w3.org/1999/xlink" xmlns="http://www.w3.org/2000/svg" width="175" height="128.56381452064758" viewBox="0 0 175 128.56381452064758" class="css-1j8o68f"><defs id="SvgjsDefs3784"><linearGradient id="SvgjsLinearGradient3789"><stop id="SvgjsStop3790" stop-color="#7f00ff" offset="0"></stop><stop id="SvgjsStop3791" stop-color="#e100ff" offset="1"></stop></linearGradient><linearGradient id="SvgjsLinearGradient3789"><stop id="SvgjsStop3790" stop-color="#7f00ff" offset="0"></stop><stop id="SvgjsStop3791" stop-color="#e100ff" offset="1"></stop></linearGradient><linearGradient id="SvgjsLinearGradient3789"><stop id="SvgjsStop3790" stop-color="#7f00ff" offset="0"></stop><stop id="SvgjsStop3791" stop-color="#e100ff" offset="1"></stop></linearGradient><linearGradient id="SvgjsLinearGradient3789"><stop id="SvgjsStop3790" stop-color="#7f00ff" offset="0"></stop><stop id="SvgjsStop3791" stop-color="#e100ff" offset="1"></stop></linearGradient><linearGradient id="SvgjsLinearGradient3789"><stop id="SvgjsStop3790" stop-color="#7f00ff" offset="0"></stop><stop id="SvgjsStop3791" stop-color="#e100ff" offset="1"></stop></linearGradient></defs><g id="SvgjsG3785" featurekey="LwVBM5-0" transform="matrix(1.881538137083985,0,0,1.881538137083985,-6.773537114064887,-49.14743572181066)" fill="url(&quot;#SvgjsLinearGradient3789&quot;)"><g xmlns="http://www.w3.org/2000/svg" fill="url(&quot;#SvgjsLinearGradient3789&quot;)"><path d="M52.9,44.71c-0.59-2.76,1.08-3.6,2.08-4.1l14.609-7.4" fill="url(&quot;#SvgjsLinearGradient3789&quot;)"></path><path d="M54.37,44.4c0.17,0.81-0.351,1.6-1.149,1.78c-0.811,0.17-1.601-0.35-1.781-1.15c-0.83-3.87,1.471-5.04,2.86-5.74   l0.011-0.01l1.369-0.69c-0.22-2.34,0-4.52,0.7-6.4c0.8-2.14,2.22-3.85,4.341-4.92c1.879-0.95,5.539-1.23,9.289-1.13   c4.711,0.13,9.721,0.87,11.36,1.64c0.75,0.35,1.069,1.24,0.71,1.99c-0.08,0.18-0.2,0.33-0.33,0.46c-0.04,0.04-0.09,0.08-0.13,0.11   l-0.05,0.04l-0.021,0.01c-0.05,0.04-0.11,0.07-0.17,0.1h-0.01c-0.04,0.02-0.07,0.03-0.11,0.05c-1.609,0.6-4.72,4.84-7.39,8.47   c-0.3,0.41-0.591,0.8-1.11,1.5c-0.49,0.66-0.99,1.24-1.5,1.75c-1.88,1.87-3.93,2.8-6.109,2.83c-2.121,0.03-4.291-0.79-6.471-2.41   c-0.56-0.42-1.119-0.89-1.689-1.41l-1.32,0.67l0,0l-0.01,0.01c-0.61,0.31-1.62,0.82-1.28,2.45H54.37z M82.439,44.32   c-0.83,0-1.5-0.67-1.5-1.5c0-0.83,0.67-1.5,1.5-1.5h4.021c2.79,0,5.33,1.14,7.17,2.98c1.841,1.84,2.979,4.38,2.979,7.171l0,0   c0,2.789-1.139,5.329-2.979,7.17c-1.84,1.84-4.38,2.979-7.17,2.979H41.22c-0.83,0-1.5-0.67-1.5-1.5s0.67-1.5,1.5-1.5h45.24   c1.96,0,3.75-0.81,5.05-2.101c1.301-1.299,2.1-3.08,2.1-5.049l0,0c0-1.961-0.799-3.75-2.1-5.051c-1.3-1.3-3.08-2.1-5.05-2.1H82.439   z M73.93,80.07c-0.83,0-1.5-0.67-1.5-1.5s0.67-1.5,1.5-1.5h3.051c1.39,0,2.66-0.57,3.58-1.49S82.05,73.4,82.05,72l0,0   c0-1.391-0.569-2.66-1.489-3.58c-0.021-0.02-0.041-0.05-0.07-0.07c-0.91-0.879-2.15-1.42-3.51-1.42H41.13c-0.83,0-1.5-0.67-1.5-1.5   s0.67-1.5,1.5-1.5H76.98c2.17,0,4.149,0.87,5.609,2.291c0.03,0.029,0.061,0.049,0.09,0.079c1.461,1.46,2.37,3.479,2.37,5.7l0,0   c0,2.21-0.909,4.23-2.37,5.689L82.67,77.7c-1.46,1.46-3.48,2.37-5.689,2.37H73.93z M23.24,61.67c-0.83,0-1.5-0.67-1.5-1.5   s0.67-1.5,1.5-1.5h11.42c0.83,0,1.5,0.67,1.5,1.5s-0.67,1.5-1.5,1.5H23.24z M5.1,54.9c-0.83,0-1.5-0.67-1.5-1.5s0.67-1.5,1.5-1.5   h44.3c0.83,0,1.5,0.67,1.5,1.5s-0.67,1.5-1.5,1.5H5.1z M58.59,37.1l10.33-5.23c0.74-0.37,1.641-0.08,2.01,0.66   c0.37,0.74,0.08,1.64-0.66,2.01l-10.41,5.27c0.201,0.16,0.391,0.32,0.591,0.46c1.649,1.22,3.2,1.85,4.64,1.82   c1.381-0.02,2.74-0.66,4.04-1.96c0.41-0.41,0.81-0.88,1.21-1.41c0.189-0.25,0.641-0.87,1.1-1.49c1.92-2.61,4.041-5.5,5.971-7.43   c-2.02-0.34-4.77-0.61-7.471-0.68c-3.319-0.09-6.469,0.11-7.869,0.82s-2.34,1.86-2.891,3.3c-0.42,1.13-0.609,2.44-0.59,3.87V37.1z" fill="url(&quot;#SvgjsLinearGradient3789&quot;)"></path></g></g></svg>